<svg width="391" height="69" viewBox="0 0 391 69" fill="none" xmlns="http://www.w3.org/2000/svg">
<path d="M128.156 5.03V10.334H118.568V14.55H125.64V19.616H118.568V29H111.904V5.03H128.156ZM145.515 29.238C143.271 29.238 141.208 28.7167 139.327 27.674C137.445 26.6087 135.949 25.1467 134.839 23.288C133.751 21.4067 133.207 19.2873 133.207 16.93C133.207 14.5727 133.751 12.4647 134.839 10.606C135.949 8.72467 137.445 7.26267 139.327 6.22C141.208 5.17733 143.271 4.656 145.515 4.656C147.781 4.656 149.844 5.17733 151.703 6.22C153.584 7.26267 155.069 8.72467 156.157 10.606C157.245 12.4647 157.789 14.5727 157.789 16.93C157.789 19.2873 157.245 21.4067 156.157 23.288C155.069 25.1467 153.584 26.6087 151.703 27.674C149.821 28.7167 147.759 29.238 145.515 29.238ZM145.515 23.05C147.215 23.05 148.552 22.4947 149.527 21.384C150.524 20.2733 151.023 18.7887 151.023 16.93C151.023 15.026 150.524 13.53 149.527 12.442C148.552 11.3313 147.215 10.776 145.515 10.776C143.792 10.776 142.443 11.3313 141.469 12.442C140.494 13.53 140.007 15.026 140.007 16.93C140.007 18.8113 140.494 20.3073 141.469 21.418C142.443 22.506 143.792 23.05 145.515 23.05ZM175.982 29L171.222 20.16H170.508V29H163.844V5.03H174.35C176.277 5.03 177.909 5.37 179.246 6.05C180.584 6.70733 181.592 7.62533 182.272 8.804C182.952 9.96 183.292 11.2633 183.292 12.714C183.292 14.346 182.839 15.7853 181.932 17.032C181.048 18.256 179.745 19.1287 178.022 19.65L183.428 29H175.982ZM170.508 15.604H173.806C174.713 15.604 175.393 15.3887 175.846 14.958C176.3 14.5273 176.526 13.904 176.526 13.088C176.526 12.3173 176.288 11.7167 175.812 11.286C175.359 10.8327 174.69 10.606 173.806 10.606H170.508V15.604ZM207.437 5.03V10.334H201.045V29H194.381V10.334H188.057V5.03H207.437ZM124.042 63L119.282 54.16H118.568V63H111.904V39.03H122.41C124.337 39.03 125.969 39.37 127.306 40.05C128.643 40.7073 129.652 41.6253 130.332 42.804C131.012 43.96 131.352 45.2633 131.352 46.714C131.352 48.346 130.899 49.7853 129.992 51.032C129.108 52.256 127.805 53.1287 126.082 53.65L131.488 63H124.042ZM118.568 49.604H121.866C122.773 49.604 123.453 49.3887 123.906 48.958C124.359 48.5273 124.586 47.904 124.586 47.088C124.586 46.3173 124.348 45.7167 123.872 45.286C123.419 44.8327 122.75 44.606 121.866 44.606H118.568V49.604ZM148.935 63.238C146.691 63.238 144.628 62.7167 142.747 61.674C140.865 60.6087 139.369 59.1467 138.259 57.288C137.171 55.4067 136.627 53.2873 136.627 50.93C136.627 48.5727 137.171 46.4647 138.259 44.606C139.369 42.7247 140.865 41.2627 142.747 40.22C144.628 39.1773 146.691 38.656 148.935 38.656C151.201 38.656 153.264 39.1773 155.123 40.22C157.004 41.2627 158.489 42.7247 159.577 44.606C160.665 46.4647 161.209 48.5727 161.209 50.93C161.209 53.2873 160.665 55.4067 159.577 57.288C158.489 59.1467 157.004 60.6087 155.123 61.674C153.241 62.7167 151.179 63.238 148.935 63.238ZM148.935 57.05C150.635 57.05 151.972 56.4947 152.947 55.384C153.944 54.2733 154.443 52.7887 154.443 50.93C154.443 49.026 153.944 47.53 152.947 46.442C151.972 45.3313 150.635 44.776 148.935 44.776C147.212 44.776 145.863 45.3313 144.889 46.442C143.914 47.53 143.427 49.026 143.427 50.93C143.427 52.8113 143.914 54.3073 144.889 55.418C145.863 56.506 147.212 57.05 148.935 57.05ZM185.318 39.03V44.334H178.926V63H172.262V44.334H165.938V39.03H185.318ZM208.898 39.03V44.334H202.506V63H195.842V44.334H189.518V39.03H208.898ZM221.087 44.368V48.278H228.737V53.344H221.087V57.662H229.757V63H214.423V39.03H229.757V44.368H221.087ZM248.248 63L243.488 54.16H242.774V63H236.11V39.03H246.616C248.543 39.03 250.175 39.37 251.512 40.05C252.85 40.7073 253.858 41.6253 254.538 42.804C255.218 43.96 255.558 45.2633 255.558 46.714C255.558 48.346 255.105 49.7853 254.198 51.032C253.314 52.256 252.011 53.1287 250.288 53.65L255.694 63H248.248ZM242.774 49.604H246.072C246.979 49.604 247.659 49.3887 248.112 48.958C248.566 48.5273 248.792 47.904 248.792 47.088C248.792 46.3173 248.554 45.7167 248.078 45.286C247.625 44.8327 246.956 44.606 246.072 44.606H242.774V49.604ZM271.135 39.03C273.651 39.03 275.849 39.54 277.731 40.56C279.635 41.5573 281.097 42.9627 282.117 44.776C283.137 46.5893 283.647 48.6633 283.647 50.998C283.647 53.31 283.125 55.3727 282.083 57.186C281.063 58.9993 279.601 60.4273 277.697 61.47C275.815 62.49 273.628 63 271.135 63H261.649V39.03H271.135ZM270.625 57.118C272.574 57.118 274.104 56.5853 275.215 55.52C276.325 54.4547 276.881 52.9473 276.881 50.998C276.881 49.026 276.325 47.5073 275.215 46.442C274.104 45.354 272.574 44.81 270.625 44.81H268.313V57.118H270.625ZM304.875 59.09H296.375L295.083 63H288.079L296.817 39.03H304.501L313.205 63H306.167L304.875 59.09ZM303.209 53.99L300.625 46.238L298.075 53.99H303.209ZM346.419 39.03V63H339.755V49.774L335.233 63H329.657L325.101 49.672V63H318.437V39.03H326.495L332.513 54.602L338.395 39.03H346.419Z" fill="#801517"/>
<g clip-path="url(#clip0_430_384)">
<path d="M22.1179 41.6646C18.4131 41.6646 12.9943 42.2157 7.90715 45.0815C6.50158 45.8456 5.21611 46.8112 4.09181 47.9473C1.99061 50.262 0.94001 53.3483 0 56.3243C3.76004 53.7892 9.28952 51.0336 15.5378 51.8051C20.2932 52.3562 23.0579 54.6709 28.3109 57.7572C34.8607 61.401 41.7728 64.3562 48.9358 66.5751C66.5196 71.9761 82.555 66.7955 86.5363 65.4729C97.6505 61.7253 106.553 55.1669 105.945 53.6789C105.336 52.1909 100.802 54.5056 93.0057 54.2852C88.3374 54.1334 83.7169 53.2978 79.2926 51.8051" fill="#801517"/>
<path d="M75.3112 54.6159V9.03841H75.7536V7.99129H76.2512V6.61349H77.1359V6.00726H77.523C77.523 5.73171 77.5783 5.45615 77.5783 5.2357H77.9101C77.9101 5.07036 77.8548 4.90503 77.8548 4.7948H78.5183V4.18857H78.8501C78.8043 3.98991 78.7857 3.78598 78.7948 3.58234H77.523C77.4264 3.37802 77.2955 3.19163 77.1359 3.03123L51.6451 3.14145H23.6106V2.48011H23.2789V2.03921H22.6153V1.54321H22.3389V0.936977H23.6106L23.9977 0.385858H55.571L81.1172 0.275635L81.5042 0.826753H82.7207C82.7641 1.0258 82.7826 1.22941 82.776 1.43298H82.4995V1.87388H81.836V2.36988H81.5042V3.19656H81.1172V3.80279H80.2324V5.2357H79.6795V6.22771H79.2924V51.8052" fill="#801517"/>
<path d="M75.3112 54.6159V9.03841H75.7536V7.99129H76.2512V6.61349H77.1359V6.00726H77.523C77.523 5.73171 77.5783 5.45615 77.5783 5.2357H77.9101C77.9101 5.07036 77.8548 4.90503 77.8548 4.7948H78.5183V4.18857H78.8501C78.8043 3.98991 78.7857 3.78598 78.7948 3.58234H77.523C77.4264 3.37802 77.2955 3.19163 77.1359 3.03123L51.6451 3.14145H23.6106V2.48011H23.2789V2.03921H22.6153V1.54321H22.3389V0.936977H23.6106L23.9977 0.385858H55.571L81.1172 0.275635L81.5042 0.826753H82.7207C82.7641 1.0258 82.7826 1.22941 82.776 1.43298H82.4995V1.87388H81.836V2.36988H81.5042V3.19656H81.1172V3.80279H80.2325V5.2357H79.6795V6.22771H79.2924V51.8052" stroke="white" stroke-miterlimit="10"/>
<path d="M37.8213 57.5919V35.2716C37.8213 29.2644 42.2449 24.3043 47.8296 23.6981L48.9908 23.5879H49.9308L51.4238 23.6981C53.853 24.1143 56.0935 25.2693 57.838 27.0048C59.9035 29.2699 61.0642 32.211 61.1004 35.2716V60.127" stroke="white" stroke-miterlimit="10"/>
<path d="M34.5591 55.9937V35.2717C34.5591 28.8236 39.5356 23.588 45.6733 23.588H46.6686L47.8298 23.6982L48.991 23.588H49.931L51.424 23.6982C53.8532 24.1144 56.0937 25.2694 57.8382 27.0049C59.9037 29.2699 61.0644 32.2111 61.1006 35.2717V60.1271L75.3113 54.6159V9.03844H75.7537V7.99131H76.2513V6.61352H77.136V6.00729H77.5231C77.5231 5.73173 77.5784 5.45617 77.5784 5.23572H77.9102C77.9102 5.07039 77.8549 4.90505 77.8549 4.79483H78.5184V4.1886H78.8502C78.8044 3.98993 78.7858 3.78601 78.7949 3.58237H77.5231C77.4265 3.37804 77.2956 3.19166 77.136 3.03125L51.6452 3.14147H20.0166L19.6295 3.69259H18.413C18.3697 3.89164 18.3511 4.09525 18.3577 4.29882H18.6895V4.73972H19.3531C19.3077 4.90097 19.2891 5.06849 19.2978 5.23572H19.6295C19.6205 5.51243 19.639 5.78934 19.6848 6.0624H20.0719V6.66863H20.9013C20.9473 7.14481 20.9658 7.62324 20.9566 8.10154H21.4543C21.5001 8.43012 21.5186 8.76193 21.5095 9.09355H22.0625V41.6095" fill="#801517"/>
<path d="M34.5591 55.9937V35.2717C34.5591 28.8236 39.5356 23.588 45.6733 23.588H46.6687L47.8298 23.6982L48.991 23.588H49.931L51.424 23.6982C53.8532 24.1144 56.0937 25.2694 57.8382 27.0049C59.9037 29.2699 61.0644 32.2111 61.1006 35.2717V60.1271L75.3113 54.6159V9.03844H75.7537V7.99131H76.2513V6.61352H77.136V6.00729H77.5231C77.5231 5.73173 77.5784 5.45617 77.5784 5.23572H77.9102C77.9102 5.07039 77.8549 4.90505 77.8549 4.79483H78.5184V4.1886H78.8502C78.8044 3.98993 78.7858 3.78601 78.7949 3.58237H77.5231C77.4265 3.37804 77.2956 3.19166 77.136 3.03125L51.6452 3.14147H20.0166L19.6295 3.69259H18.413C18.3697 3.89164 18.3511 4.09525 18.3577 4.29882H18.6895V4.73972H19.3531C19.3077 4.90097 19.2891 5.06849 19.2978 5.23572H19.6295C19.6205 5.51243 19.639 5.78934 19.6848 6.0624H20.0719V6.66863H20.9013C20.9473 7.14481 20.9658 7.62324 20.9566 8.10154H21.4543C21.5001 8.43012 21.5186 8.76193 21.5095 9.09355H22.0625V41.6095" stroke="white" stroke-miterlimit="10"/>
<path d="M22.0625 41.6646V41.8299V41.6646Z" fill="#801517"/>
<path d="M22.0625 41.6646V41.8299" stroke="white" stroke-miterlimit="10"/>
<path d="M55.8476 10.4163H41.3604V20.5348H55.8476V10.4163Z" fill="white"/>
<path d="M47.5557 14.501H47.1211V15H46.7227V13.667H47.6865V13.9844H47.1211V14.2012H47.5557V14.501ZM48.2432 15.0205C48.0785 15.0205 47.9476 14.9694 47.8506 14.8672C47.7536 14.7643 47.7051 14.6439 47.7051 14.5059C47.7051 14.3574 47.7555 14.2337 47.8564 14.1348C47.958 14.0358 48.0898 13.9863 48.252 13.9863C48.4154 13.9863 48.5465 14.0352 48.6455 14.1328C48.7451 14.2305 48.7949 14.3529 48.7949 14.5C48.7949 14.6484 48.7445 14.7725 48.6436 14.8721C48.5433 14.971 48.4098 15.0205 48.2432 15.0205ZM48.249 14.7842C48.3096 14.7842 48.3464 14.7529 48.3594 14.6904C48.373 14.6273 48.3799 14.5615 48.3799 14.4932C48.3799 14.4001 48.3704 14.333 48.3516 14.292C48.3327 14.251 48.2988 14.2305 48.25 14.2305C48.2051 14.2305 48.1722 14.2516 48.1514 14.2939C48.1305 14.3363 48.1201 14.4059 48.1201 14.5029C48.1201 14.6169 48.1309 14.6924 48.1523 14.7295C48.1738 14.766 48.2061 14.7842 48.249 14.7842ZM49.3203 15H48.9473V14.0068H49.2715V14.2119C49.3086 14.0628 49.3949 13.9883 49.5303 13.9883C49.5439 13.9883 49.5628 13.9896 49.5869 13.9922V14.3389C49.5596 14.3324 49.5352 14.3291 49.5137 14.3291C49.3848 14.3291 49.3203 14.401 49.3203 14.5449V15ZM50.3652 14.0068V14.2598H50.167V14.626C50.167 14.6761 50.1764 14.7061 50.1953 14.7158C50.2142 14.7249 50.2337 14.7295 50.2539 14.7295C50.2852 14.7295 50.3223 14.724 50.3652 14.7129V14.9902C50.2884 15.0052 50.2129 15.0127 50.1387 15.0127C50.0189 15.0127 49.9307 14.987 49.874 14.9355C49.818 14.8841 49.79 14.8021 49.79 14.6895L49.791 14.5732V14.2598H49.6426V14.0068H49.791L49.7969 13.6836L50.167 13.6777V14.0068H50.3652ZM44.7871 17H44.333L44.1387 16.4902H44.0098V17H43.6006V15.667H44.2969C44.4505 15.667 44.5697 15.7031 44.6543 15.7754C44.7396 15.847 44.7822 15.9417 44.7822 16.0596C44.7822 16.1364 44.7666 16.2044 44.7354 16.2637C44.7041 16.3223 44.641 16.374 44.5459 16.4189L44.7871 17ZM44.0098 16.2051H44.1846C44.236 16.2051 44.2773 16.1943 44.3086 16.1729C44.3398 16.1514 44.3555 16.1198 44.3555 16.0781C44.3555 15.9928 44.3031 15.9502 44.1982 15.9502H44.0098V16.2051ZM45.4277 17.0205C45.263 17.0205 45.1322 16.9694 45.0352 16.8672C44.9382 16.7643 44.8896 16.6439 44.8896 16.5059C44.8896 16.3574 44.9401 16.2337 45.041 16.1348C45.1426 16.0358 45.2744 15.9863 45.4365 15.9863C45.5999 15.9863 45.7311 16.0352 45.8301 16.1328C45.9297 16.2305 45.9795 16.3529 45.9795 16.5C45.9795 16.6484 45.929 16.7725 45.8281 16.8721C45.7279 16.971 45.5944 17.0205 45.4277 17.0205ZM45.4336 16.7842C45.4941 16.7842 45.5309 16.7529 45.5439 16.6904C45.5576 16.6273 45.5645 16.5615 45.5645 16.4932C45.5645 16.4001 45.555 16.333 45.5361 16.292C45.5173 16.251 45.4834 16.2305 45.4346 16.2305C45.3896 16.2305 45.3568 16.2516 45.3359 16.2939C45.3151 16.3363 45.3047 16.4059 45.3047 16.5029C45.3047 16.6169 45.3154 16.6924 45.3369 16.7295C45.3584 16.766 45.3906 16.7842 45.4336 16.7842ZM46.7451 16.0068V16.2598H46.5469V16.626C46.5469 16.6761 46.5563 16.7061 46.5752 16.7158C46.5941 16.7249 46.6136 16.7295 46.6338 16.7295C46.665 16.7295 46.7021 16.724 46.7451 16.7129V16.9902C46.6683 17.0052 46.5928 17.0127 46.5186 17.0127C46.3988 17.0127 46.3105 16.987 46.2539 16.9355C46.1979 16.8841 46.1699 16.8021 46.1699 16.6895L46.1709 16.5732V16.2598H46.0225V16.0068H46.1709L46.1768 15.6836L46.5469 15.6777V16.0068H46.7451ZM47.4893 16.0068V16.2598H47.291V16.626C47.291 16.6761 47.3005 16.7061 47.3193 16.7158C47.3382 16.7249 47.3577 16.7295 47.3779 16.7295C47.4092 16.7295 47.4463 16.724 47.4893 16.7129V16.9902C47.4124 17.0052 47.3369 17.0127 47.2627 17.0127C47.1429 17.0127 47.0547 16.987 46.998 16.9355C46.9421 16.8841 46.9141 16.8021 46.9141 16.6895L46.915 16.5732V16.2598H46.7666V16.0068H46.915L46.9209 15.6836L47.291 15.6777V16.0068H47.4893ZM48.2764 16.6436L48.6396 16.668C48.6182 16.7656 48.5632 16.849 48.4746 16.918C48.3867 16.9863 48.2676 17.0205 48.1172 17.0205C47.9499 17.0205 47.8164 16.9723 47.7168 16.876C47.6172 16.779 47.5674 16.6589 47.5674 16.5156C47.5674 16.3672 47.6165 16.2419 47.7148 16.1396C47.8132 16.0374 47.9443 15.9863 48.1084 15.9863C48.2673 15.9863 48.3955 16.0345 48.4932 16.1309C48.5915 16.2272 48.6406 16.3584 48.6406 16.5244C48.6406 16.5381 48.6403 16.557 48.6396 16.5811H47.9746C47.9759 16.6436 47.987 16.6901 48.0078 16.7207C48.0286 16.7507 48.0684 16.7656 48.127 16.7656C48.2116 16.7656 48.2614 16.7249 48.2764 16.6436ZM48.251 16.3857C48.2503 16.3187 48.2367 16.2738 48.21 16.251C48.1839 16.2275 48.1514 16.2158 48.1123 16.2158C48.0199 16.2158 47.9736 16.2725 47.9736 16.3857H48.251ZM49.167 17H48.7939V16.0068H49.1182V16.2119C49.1553 16.0628 49.2415 15.9883 49.377 15.9883C49.3906 15.9883 49.4095 15.9896 49.4336 15.9922V16.3389C49.4062 16.3324 49.3818 16.3291 49.3604 16.3291C49.2314 16.3291 49.167 16.401 49.167 16.5449V17ZM50.5273 17H50.1621V16.8682C50.1081 16.9697 50.0189 17.0205 49.8945 17.0205C49.7799 17.0205 49.6868 16.9759 49.6152 16.8867C49.5443 16.7969 49.5088 16.6667 49.5088 16.4961C49.5088 16.3366 49.5446 16.21 49.6162 16.1162C49.6878 16.0225 49.7826 15.9756 49.9004 15.9756C49.9987 15.9756 50.0798 16.013 50.1436 16.0879V15.667H50.5273V17ZM50.1436 16.3613C50.1436 16.2721 50.1068 16.2275 50.0332 16.2275C49.9818 16.2275 49.9479 16.2559 49.9316 16.3125C49.916 16.3691 49.9082 16.4385 49.9082 16.5205C49.9082 16.6813 49.9492 16.7617 50.0312 16.7617C50.0625 16.7617 50.0889 16.749 50.1104 16.7236C50.1325 16.6982 50.1436 16.6595 50.1436 16.6074V16.3613ZM51.7344 17H51.3633C51.3542 16.9577 51.3496 16.9115 51.3496 16.8613C51.2793 16.9674 51.1729 17.0205 51.0303 17.0205C50.9131 17.0205 50.8252 16.9906 50.7666 16.9307C50.7087 16.8708 50.6797 16.8021 50.6797 16.7246C50.6797 16.6198 50.7272 16.5352 50.8223 16.4707C50.918 16.4056 51.0872 16.3665 51.3301 16.3535V16.3311C51.3301 16.2874 51.32 16.2585 51.2998 16.2441C51.2803 16.2298 51.2513 16.2227 51.2129 16.2227C51.123 16.2227 51.0729 16.2588 51.0625 16.3311L50.707 16.2979C50.7578 16.0902 50.9307 15.9863 51.2256 15.9863C51.3057 15.9863 51.3792 15.9945 51.4463 16.0107C51.5133 16.0264 51.5664 16.0511 51.6055 16.085C51.6445 16.1188 51.6706 16.1546 51.6836 16.1924C51.6973 16.2301 51.7041 16.3027 51.7041 16.4102V16.8066C51.7041 16.8822 51.7142 16.9466 51.7344 17ZM51.3301 16.5352C51.1641 16.5527 51.0811 16.6058 51.0811 16.6943C51.0811 16.7542 51.1139 16.7842 51.1797 16.7842C51.2214 16.7842 51.2568 16.7718 51.2861 16.7471C51.3154 16.7223 51.3301 16.6676 51.3301 16.583V16.5352ZM53.4121 17H53.0342V16.3789C53.0342 16.3372 53.028 16.3083 53.0156 16.292C53.0039 16.2751 52.9827 16.2666 52.9521 16.2666C52.8792 16.2666 52.8428 16.3197 52.8428 16.4258V17H52.4688V16.3789C52.4688 16.2995 52.4382 16.2598 52.377 16.2598C52.3138 16.2598 52.2822 16.2995 52.2822 16.3789V17H51.9072V16.0068H52.2568V16.1406C52.3193 16.0378 52.4102 15.9863 52.5293 15.9863C52.6576 15.9863 52.7507 16.0378 52.8086 16.1406C52.873 16.0378 52.972 15.9863 53.1055 15.9863C53.1693 15.9863 53.2253 15.9997 53.2734 16.0264C53.3223 16.0531 53.3574 16.0876 53.3789 16.1299C53.401 16.1715 53.4121 16.2363 53.4121 16.3242V17Z" fill="#801517"/>
<path d="M60.2158 60.4579L76.2513 54.2302L60.2158 60.4579Z" fill="#801517"/>
<path d="M60.2158 60.4579L76.2513 54.2302" stroke="#801517" stroke-width="1.15641" stroke-miterlimit="10"/>
</g>
<defs>
<clipPath id="clip0_430_384">
<rect width="106" height="69" fill="white"/>
</clipPath>
</defs>
</svg>
