<svg width="106" height="69" viewBox="0 0 106 69" fill="none" xmlns="http://www.w3.org/2000/svg">
<path d="M22.1179 41.6646C18.4131 41.6646 12.9943 42.2157 7.90715 45.0815C6.50158 45.8456 5.21611 46.8112 4.09181 47.9473C1.99061 50.262 0.94001 53.3483 0 56.3243C3.76004 53.7892 9.28952 51.0336 15.5378 51.8051C20.2932 52.3562 23.0579 54.6709 28.3109 57.7572C34.8607 61.401 41.7728 64.3562 48.9358 66.5751C66.5196 71.9761 82.555 66.7955 86.5363 65.4729C97.6505 61.7253 106.553 55.1669 105.945 53.6789C105.336 52.1909 100.802 54.5056 93.0057 54.2852C88.3374 54.1334 83.7169 53.2978 79.2926 51.8051" fill="white"/>
<path d="M75.3112 54.6158V9.03835H75.7536V7.99123H76.2512V6.61343H77.1359V6.0072H77.523C77.523 5.73164 77.5783 5.45609 77.5783 5.23564H77.9101C77.9101 5.0703 77.8548 4.90497 77.8548 4.79474H78.5183V4.18851H78.8501C78.8043 3.98985 78.7857 3.78592 78.7948 3.58228H77.523C77.4264 3.37796 77.2955 3.19157 77.1359 3.03117L51.6451 3.14139H23.6106V2.48005H23.2789V2.03915H22.6153V1.54315H22.3389V0.936916H23.6106L23.9977 0.385797H55.571L81.1172 0.275574L81.5042 0.826692H82.7207C82.7641 1.02574 82.7826 1.22935 82.776 1.43292H82.4995V1.87382H81.836V2.36982H81.5042V3.1965H81.1172V3.80273H80.2324V5.23564H79.6795V6.22765H79.2924V51.8051" fill="white"/>
<path d="M75.3112 54.6158V9.03835H75.7536V7.99123H76.2512V6.61343H77.1359V6.0072H77.523C77.523 5.73164 77.5783 5.45609 77.5783 5.23564H77.9101C77.9101 5.0703 77.8548 4.90497 77.8548 4.79474H78.5183V4.18851H78.8501C78.8043 3.98985 78.7857 3.78592 78.7948 3.58228H77.523C77.4264 3.37796 77.2955 3.19157 77.1359 3.03117L51.6451 3.14139H23.6106V2.48005H23.2789V2.03915H22.6153V1.54315H22.3389V0.936916H23.6106L23.9977 0.385797H55.571L81.1172 0.275574L81.5042 0.826692H82.7207C82.7641 1.02574 82.7826 1.22935 82.776 1.43292H82.4995V1.87382H81.836V2.36982H81.5042V3.1965H81.1172V3.80273H80.2325V5.23564H79.6795V6.22765H79.2924V51.8051" stroke="#DC8014" stroke-miterlimit="10"/>
<path d="M37.8213 57.5919V35.2716C37.8213 29.2644 42.2449 24.3043 47.8296 23.6981L48.9908 23.5879H49.9308L51.4238 23.6981C53.853 24.1143 56.0935 25.2693 57.838 27.0048C59.9035 29.2699 61.0642 32.211 61.1004 35.2716V60.127" stroke="#DC8014" stroke-miterlimit="10"/>
<path d="M34.5591 55.9937V35.2716C34.5591 28.8235 39.5356 23.5879 45.6733 23.5879H46.6686L47.8298 23.6981L48.991 23.5879H49.931L51.424 23.6981C53.8532 24.1143 56.0937 25.2693 57.8382 27.0048C59.9037 29.2699 61.0644 32.211 61.1006 35.2716V60.127L75.3113 54.6159V9.03838H75.7537V7.99125H76.2513V6.61346H77.136V6.00723H77.5231C77.5231 5.73167 77.5784 5.45611 77.5784 5.23566H77.9102C77.9102 5.07033 77.8549 4.90499 77.8549 4.79477H78.5184V4.18854H78.8502C78.8044 3.98987 78.7858 3.78594 78.7949 3.58231H77.5231C77.4265 3.37798 77.2956 3.1916 77.136 3.03119L51.6452 3.14141H20.0166L19.6295 3.69253H18.413C18.3697 3.89158 18.3511 4.09519 18.3577 4.29876H18.6895V4.73966H19.3531C19.3077 4.90091 19.2891 5.06843 19.2978 5.23566H19.6295C19.6205 5.51237 19.639 5.78928 19.6848 6.06234H20.0719V6.66857H20.9013C20.9473 7.14475 20.9658 7.62318 20.9566 8.10148H21.4543C21.5001 8.43006 21.5186 8.76186 21.5095 9.09349H22.0625V41.6095" fill="white"/>
<path d="M34.5591 55.9937V35.2716C34.5591 28.8235 39.5356 23.5879 45.6733 23.5879H46.6687L47.8298 23.6981L48.991 23.5879H49.931L51.424 23.6981C53.8532 24.1143 56.0937 25.2693 57.8382 27.0048C59.9037 29.2699 61.0644 32.211 61.1006 35.2716V60.127L75.3113 54.6159V9.03838H75.7537V7.99125H76.2513V6.61346H77.136V6.00723H77.5231C77.5231 5.73167 77.5784 5.45611 77.5784 5.23566H77.9102C77.9102 5.07033 77.8549 4.90499 77.8549 4.79477H78.5184V4.18854H78.8502C78.8044 3.98987 78.7858 3.78594 78.7949 3.58231H77.5231C77.4265 3.37798 77.2956 3.1916 77.136 3.03119L51.6452 3.14141H20.0166L19.6295 3.69253H18.413C18.3697 3.89158 18.3511 4.09519 18.3577 4.29876H18.6895V4.73966H19.3531C19.3077 4.90091 19.2891 5.06843 19.2978 5.23566H19.6295C19.6205 5.51237 19.639 5.78928 19.6848 6.06234H20.0719V6.66857H20.9013C20.9473 7.14475 20.9658 7.62318 20.9566 8.10148H21.4543C21.5001 8.43006 21.5186 8.76186 21.5095 9.09349H22.0625V41.6095" stroke="#DC8014" stroke-miterlimit="10"/>
<path d="M22.0625 41.6646V41.8299V41.6646Z" fill="white"/>
<path d="M22.0625 41.6646V41.8299" stroke="#DC8014" stroke-miterlimit="10"/>
<path d="M55.8476 10.4161H41.3604V20.5347H55.8476V10.4161Z" fill="#F49823"/>
<path d="M47.5557 14.501H47.1211V15H46.7227V13.667H47.6865V13.9844H47.1211V14.2012H47.5557V14.501ZM48.2432 15.0205C48.0785 15.0205 47.9476 14.9694 47.8506 14.8672C47.7536 14.7643 47.7051 14.6439 47.7051 14.5059C47.7051 14.3574 47.7555 14.2337 47.8564 14.1348C47.958 14.0358 48.0898 13.9863 48.252 13.9863C48.4154 13.9863 48.5465 14.0352 48.6455 14.1328C48.7451 14.2305 48.7949 14.3529 48.7949 14.5C48.7949 14.6484 48.7445 14.7725 48.6436 14.8721C48.5433 14.971 48.4098 15.0205 48.2432 15.0205ZM48.249 14.7842C48.3096 14.7842 48.3464 14.7529 48.3594 14.6904C48.373 14.6273 48.3799 14.5615 48.3799 14.4932C48.3799 14.4001 48.3704 14.333 48.3516 14.292C48.3327 14.251 48.2988 14.2305 48.25 14.2305C48.2051 14.2305 48.1722 14.2516 48.1514 14.2939C48.1305 14.3363 48.1201 14.4059 48.1201 14.5029C48.1201 14.6169 48.1309 14.6924 48.1523 14.7295C48.1738 14.766 48.2061 14.7842 48.249 14.7842ZM49.3203 15H48.9473V14.0068H49.2715V14.2119C49.3086 14.0628 49.3949 13.9883 49.5303 13.9883C49.5439 13.9883 49.5628 13.9896 49.5869 13.9922V14.3389C49.5596 14.3324 49.5352 14.3291 49.5137 14.3291C49.3848 14.3291 49.3203 14.401 49.3203 14.5449V15ZM50.3652 14.0068V14.2598H50.167V14.626C50.167 14.6761 50.1764 14.7061 50.1953 14.7158C50.2142 14.7249 50.2337 14.7295 50.2539 14.7295C50.2852 14.7295 50.3223 14.724 50.3652 14.7129V14.9902C50.2884 15.0052 50.2129 15.0127 50.1387 15.0127C50.0189 15.0127 49.9307 14.987 49.874 14.9355C49.818 14.8841 49.79 14.8021 49.79 14.6895L49.791 14.5732V14.2598H49.6426V14.0068H49.791L49.7969 13.6836L50.167 13.6777V14.0068H50.3652ZM44.7871 17H44.333L44.1387 16.4902H44.0098V17H43.6006V15.667H44.2969C44.4505 15.667 44.5697 15.7031 44.6543 15.7754C44.7396 15.847 44.7822 15.9417 44.7822 16.0596C44.7822 16.1364 44.7666 16.2044 44.7354 16.2637C44.7041 16.3223 44.641 16.374 44.5459 16.4189L44.7871 17ZM44.0098 16.2051H44.1846C44.236 16.2051 44.2773 16.1943 44.3086 16.1729C44.3398 16.1514 44.3555 16.1198 44.3555 16.0781C44.3555 15.9928 44.3031 15.9502 44.1982 15.9502H44.0098V16.2051ZM45.4277 17.0205C45.263 17.0205 45.1322 16.9694 45.0352 16.8672C44.9382 16.7643 44.8896 16.6439 44.8896 16.5059C44.8896 16.3574 44.9401 16.2337 45.041 16.1348C45.1426 16.0358 45.2744 15.9863 45.4365 15.9863C45.5999 15.9863 45.7311 16.0352 45.8301 16.1328C45.9297 16.2305 45.9795 16.3529 45.9795 16.5C45.9795 16.6484 45.929 16.7725 45.8281 16.8721C45.7279 16.971 45.5944 17.0205 45.4277 17.0205ZM45.4336 16.7842C45.4941 16.7842 45.5309 16.7529 45.5439 16.6904C45.5576 16.6273 45.5645 16.5615 45.5645 16.4932C45.5645 16.4001 45.555 16.333 45.5361 16.292C45.5173 16.251 45.4834 16.2305 45.4346 16.2305C45.3896 16.2305 45.3568 16.2516 45.3359 16.2939C45.3151 16.3363 45.3047 16.4059 45.3047 16.5029C45.3047 16.6169 45.3154 16.6924 45.3369 16.7295C45.3584 16.766 45.3906 16.7842 45.4336 16.7842ZM46.7451 16.0068V16.2598H46.5469V16.626C46.5469 16.6761 46.5563 16.7061 46.5752 16.7158C46.5941 16.7249 46.6136 16.7295 46.6338 16.7295C46.665 16.7295 46.7021 16.724 46.7451 16.7129V16.9902C46.6683 17.0052 46.5928 17.0127 46.5186 17.0127C46.3988 17.0127 46.3105 16.987 46.2539 16.9355C46.1979 16.8841 46.1699 16.8021 46.1699 16.6895L46.1709 16.5732V16.2598H46.0225V16.0068H46.1709L46.1768 15.6836L46.5469 15.6777V16.0068H46.7451ZM47.4893 16.0068V16.2598H47.291V16.626C47.291 16.6761 47.3005 16.7061 47.3193 16.7158C47.3382 16.7249 47.3577 16.7295 47.3779 16.7295C47.4092 16.7295 47.4463 16.724 47.4893 16.7129V16.9902C47.4124 17.0052 47.3369 17.0127 47.2627 17.0127C47.1429 17.0127 47.0547 16.987 46.998 16.9355C46.9421 16.8841 46.9141 16.8021 46.9141 16.6895L46.915 16.5732V16.2598H46.7666V16.0068H46.915L46.9209 15.6836L47.291 15.6777V16.0068H47.4893ZM48.2764 16.6436L48.6396 16.668C48.6182 16.7656 48.5632 16.849 48.4746 16.918C48.3867 16.9863 48.2676 17.0205 48.1172 17.0205C47.9499 17.0205 47.8164 16.9723 47.7168 16.876C47.6172 16.779 47.5674 16.6589 47.5674 16.5156C47.5674 16.3672 47.6165 16.2419 47.7148 16.1396C47.8132 16.0374 47.9443 15.9863 48.1084 15.9863C48.2673 15.9863 48.3955 16.0345 48.4932 16.1309C48.5915 16.2272 48.6406 16.3584 48.6406 16.5244C48.6406 16.5381 48.6403 16.557 48.6396 16.5811H47.9746C47.9759 16.6436 47.987 16.6901 48.0078 16.7207C48.0286 16.7507 48.0684 16.7656 48.127 16.7656C48.2116 16.7656 48.2614 16.7249 48.2764 16.6436ZM48.251 16.3857C48.2503 16.3187 48.2367 16.2738 48.21 16.251C48.1839 16.2275 48.1514 16.2158 48.1123 16.2158C48.0199 16.2158 47.9736 16.2725 47.9736 16.3857H48.251ZM49.167 17H48.7939V16.0068H49.1182V16.2119C49.1553 16.0628 49.2415 15.9883 49.377 15.9883C49.3906 15.9883 49.4095 15.9896 49.4336 15.9922V16.3389C49.4062 16.3324 49.3818 16.3291 49.3604 16.3291C49.2314 16.3291 49.167 16.401 49.167 16.5449V17ZM50.5273 17H50.1621V16.8682C50.1081 16.9697 50.0189 17.0205 49.8945 17.0205C49.7799 17.0205 49.6868 16.9759 49.6152 16.8867C49.5443 16.7969 49.5088 16.6667 49.5088 16.4961C49.5088 16.3366 49.5446 16.21 49.6162 16.1162C49.6878 16.0225 49.7826 15.9756 49.9004 15.9756C49.9987 15.9756 50.0798 16.013 50.1436 16.0879V15.667H50.5273V17ZM50.1436 16.3613C50.1436 16.2721 50.1068 16.2275 50.0332 16.2275C49.9818 16.2275 49.9479 16.2559 49.9316 16.3125C49.916 16.3691 49.9082 16.4385 49.9082 16.5205C49.9082 16.6813 49.9492 16.7617 50.0312 16.7617C50.0625 16.7617 50.0889 16.749 50.1104 16.7236C50.1325 16.6982 50.1436 16.6595 50.1436 16.6074V16.3613ZM51.7344 17H51.3633C51.3542 16.9577 51.3496 16.9115 51.3496 16.8613C51.2793 16.9674 51.1729 17.0205 51.0303 17.0205C50.9131 17.0205 50.8252 16.9906 50.7666 16.9307C50.7087 16.8708 50.6797 16.8021 50.6797 16.7246C50.6797 16.6198 50.7272 16.5352 50.8223 16.4707C50.918 16.4056 51.0872 16.3665 51.3301 16.3535V16.3311C51.3301 16.2874 51.32 16.2585 51.2998 16.2441C51.2803 16.2298 51.2513 16.2227 51.2129 16.2227C51.123 16.2227 51.0729 16.2588 51.0625 16.3311L50.707 16.2979C50.7578 16.0902 50.9307 15.9863 51.2256 15.9863C51.3057 15.9863 51.3792 15.9945 51.4463 16.0107C51.5133 16.0264 51.5664 16.0511 51.6055 16.085C51.6445 16.1188 51.6706 16.1546 51.6836 16.1924C51.6973 16.2301 51.7041 16.3027 51.7041 16.4102V16.8066C51.7041 16.8822 51.7142 16.9466 51.7344 17ZM51.3301 16.5352C51.1641 16.5527 51.0811 16.6058 51.0811 16.6943C51.0811 16.7542 51.1139 16.7842 51.1797 16.7842C51.2214 16.7842 51.2568 16.7718 51.2861 16.7471C51.3154 16.7223 51.3301 16.6676 51.3301 16.583V16.5352ZM53.4121 17H53.0342V16.3789C53.0342 16.3372 53.028 16.3083 53.0156 16.292C53.0039 16.2751 52.9827 16.2666 52.9521 16.2666C52.8792 16.2666 52.8428 16.3197 52.8428 16.4258V17H52.4688V16.3789C52.4688 16.2995 52.4382 16.2598 52.377 16.2598C52.3138 16.2598 52.2822 16.2995 52.2822 16.3789V17H51.9072V16.0068H52.2568V16.1406C52.3193 16.0378 52.4102 15.9863 52.5293 15.9863C52.6576 15.9863 52.7507 16.0378 52.8086 16.1406C52.873 16.0378 52.972 15.9863 53.1055 15.9863C53.1693 15.9863 53.2253 15.9997 53.2734 16.0264C53.3223 16.0531 53.3574 16.0876 53.3789 16.1299C53.401 16.1715 53.4121 16.2363 53.4121 16.3242V17Z" fill="white"/>
<path d="M60.2158 60.4577L76.2513 54.23L60.2158 60.4577Z" fill="white"/>
<path d="M60.2158 60.4577L76.2513 54.23" stroke="white" stroke-width="1.15641" stroke-miterlimit="10"/>
</svg>
