<svg width="35" height="64" viewBox="0 0 35 64" fill="none" xmlns="http://www.w3.org/2000/svg">
<path d="M17.0628 0C8.07822 0 0.795166 6.98098 0.795166 15.6023C0.795166 24.2236 17.0628 44.8156 17.0628 44.8156C17.0628 44.8156 33.3224 24.2236 33.3224 15.6023C33.3224 6.98098 26.0473 0 17.0628 0ZM17.0628 25.9326C11.1155 25.9326 6.29721 21.3092 6.29721 15.6023C6.29721 9.89544 11.1155 5.27197 17.0628 5.27197C23.0101 5.27197 27.8283 9.89544 27.8283 15.6023C27.8283 21.3092 23.0101 25.9326 17.0628 25.9326Z" fill="#E82327"/>
<path d="M35 59.6086C35 61.8287 27.1604 63.6217 17.5 63.6217C7.83962 63.6217 0 61.8287 0 59.6086C0 57.6249 6.28124 55.9922 14.5184 55.6565H20.4816C28.7267 55.9922 35 57.6249 35 59.6086Z" fill="#E3E2E1"/>
</svg>
