<svg width="48" height="24" viewBox="0 0 48 24" fill="none" xmlns="http://www.w3.org/2000/svg">
<path d="M45.6 14.4H31.2C29.88 14.4 28.8 13.32 28.8 12C28.8 10.68 29.88 9.6 31.2 9.6H45.6C46.92 9.6 48 10.68 48 12C48 13.32 46.92 14.4 45.6 14.4ZM45.6 0H31.2C29.88 0 28.8 1.08 28.8 2.4C28.8 3.72 29.88 4.8 31.2 4.8H45.6C46.92 4.8 48 3.72 48 2.4C48 1.08 46.92 0 45.6 0ZM31.2 24H45.6C46.92 24 48 22.92 48 21.6C48 20.28 46.92 19.2 45.6 19.2H31.2C29.88 19.2 28.8 20.28 28.8 21.6C28.8 22.92 29.88 24 31.2 24ZM24 4.8V19.2C24 21.84 21.84 24 19.2 24H4.8C2.16 24 0 21.84 0 19.2V4.8C0 2.16 2.16 0 4.8 0H19.2C21.84 0 24 2.16 24 4.8ZM18.96 17.28L15.936 13.248C15.456 12.624 14.52 12.6 14.016 13.224L10.8 17.424L8.76 14.952C8.28 14.352 7.368 14.376 6.888 14.976L5.112 17.256C4.488 18.048 5.064 19.2 6.048 19.2H18C18.984 19.2 19.56 18.072 18.96 17.28Z" fill="white"/>
</svg>
