<svg width="43" height="38" viewBox="0 0 43 38" fill="none" xmlns="http://www.w3.org/2000/svg">
<path d="M24.4748 0.00736665C13.6903 -0.288132 4.85518 8.34464 4.85518 19.0037H1.06262C0.109188 19.0037 -0.356936 20.1435 0.321063 20.7978L6.23236 26.7077C6.65611 27.1299 7.31292 27.1299 7.73667 26.7077L13.648 20.7978C14.3048 20.1435 13.8387 19.0037 12.8852 19.0037H9.09267C9.09267 10.7719 15.8303 4.12324 24.1358 4.22877C32.0175 4.33431 38.6492 10.9408 38.7551 18.7926C38.861 27.0455 32.187 33.7786 23.9239 33.7786C20.5127 33.7786 17.3558 32.6177 14.8557 30.6548C14.0082 30.0004 12.8217 30.0638 12.0589 30.8236C11.169 31.7101 11.2326 33.2087 12.2284 33.9686C15.4489 36.5014 19.4957 38 23.9239 38C34.6236 38 43.2892 29.1984 42.9926 18.4549C42.7172 8.55571 34.4117 0.281758 24.4748 0.00736665ZM23.3942 10.5609C22.5255 10.5609 21.8051 11.2785 21.8051 12.1439V19.9113C21.8051 20.65 22.2077 21.3466 22.8433 21.7265L29.4538 25.6313C30.2166 26.0745 31.1912 25.8213 31.6361 25.0825C32.0811 24.3227 31.8268 23.3517 31.0853 22.9085L24.9833 19.2992V12.1228C24.9833 11.2785 24.2629 10.5609 23.3942 10.5609Z" fill="white"/>
</svg>
