<svg width="63" height="59" viewBox="0 0 63 59" fill="none" xmlns="http://www.w3.org/2000/svg">
<path d="M42.1754 27.3244C42.1754 37.1239 36.2551 36.0361 36.2551 41.4844H26.7787C26.7787 36.0361 20.8584 37.1239 20.8584 27.3244C20.8584 17.5248 31.5169 17.5156 31.5169 17.5156C31.5169 17.5156 42.1754 17.5156 42.1754 27.3244Z" fill="white"/>
<path d="M26.6719 41.4844H36.3614V44.25H26.6719V41.4844Z" fill="#F8991D"/>
<path d="M26.6719 44.25H36.3614V47.0156H26.6719V44.25Z" fill="white"/>
<path d="M33.455 49.7812H29.5791L26.6723 47.0156H36.3618L33.455 49.7812ZM29.928 34.1094H29.7729C29.6022 34.0828 29.4421 34.0132 29.3092 33.9078C29.1762 33.8024 29.0754 33.6651 29.0171 33.5102L27.5249 29.6106L26.4882 30.975L24.9185 29.8872L27.0308 27.1216C27.1346 26.9864 27.2751 26.8806 27.4372 26.8157C27.5994 26.7507 27.7771 26.729 27.9513 26.7528C28.1255 26.7763 28.2897 26.8445 28.4263 26.9501C28.5628 27.0556 28.6666 27.1946 28.7265 27.352L30.2574 31.3437L32.3503 28.91C32.4341 28.8111 32.5385 28.7298 32.6569 28.6711C32.7753 28.6124 32.9051 28.5776 33.0383 28.5689C33.1686 28.5608 33.2993 28.5779 33.4226 28.6191C33.5458 28.6603 33.659 28.7247 33.7553 28.8086L35.3929 30.2467L36.9238 29.583L37.7377 31.2608L35.6254 32.1827C35.4514 32.26 35.2572 32.2863 35.0675 32.2584C34.8777 32.2305 34.7009 32.1496 34.5596 32.0259L33.203 30.8367L30.6837 33.7683C30.5925 33.8752 30.4773 33.9614 30.3465 34.0204C30.2157 34.0794 30.0727 34.1098 29.928 34.1094ZM30.5481 35.9531H32.486V41.4844H30.5481V35.9531Z" fill="#F8991D"/>
<path d="M10.1997 26.7344H15.0445V28.5781H10.1997V26.7344ZM47.989 26.7344H52.8338V28.5781H47.989V26.7344ZM15.3303 41.7517L18.7566 38.4929L20.1267 39.7964L16.7004 43.0562L15.3303 41.7517ZM42.9078 15.517L46.333 12.2582L47.7032 13.5617L44.2779 16.8205L42.9078 15.517ZM15.3274 13.5562L16.6975 12.2526L20.1228 15.5115L18.7527 16.8159L15.3274 13.5562ZM42.902 39.802L44.2711 38.4984L47.6973 41.7573L46.3272 43.0617L42.902 39.802ZM30.5478 7.375H32.4857V11.9844H30.5478V7.375Z" fill="white"/>
</svg>
